# xmcd
#
# Track frame offsets:
#	150
#	19506
#	36004
#	51541
#	63077
#	79397
#	95458
#	112262
#	126590
#	141026
#	157355
#	170832
#	189311
#	205188
#	221344
#	237833
#	254992
#	270569
#	290940
#	303810
#
# Disc length: 4210 seconds
#
# Revision: 0
# Processed by: cddbd v1.4PL0 Copyright (c) Steve Scherf et al.
# Submitted via: MusicWizard 6.0.1
#
DISCID=3a107014
DTITLE=Various Artist - Saloon Tunes Vol.10 Feb.99
DYEAR=1900
DGENRE=Country
TTITLE0=Alabama - The Voice
TTITLE1=Blackhawk - When I Find It, I'll Know It
TTITLE2=Claudia Church - What's The Matter With You Baby
TTITLE3=Confederate Railroad - The Big One
TTITLE4=Dixie Chicks - You Were Mine
TTITLE5=Dolly Parton - I Still Lost You
TTITLE6=George Strait - You Haven't Left Me Yet
TTITLE7=Joe Diffie - Behind Closed Doors
TTITLE8=Keith Harling - Write It In Stone
TTITLE9=Lee Ann Womack - I'll Think Of A Reason Later
TTITLE10=Lisa Brokop - When You Get To Be You
TTITLE11=Mindy Mccready - Walk In Glory
TTITLE12=Patty Loveless - The Party Ain't Over Yet
TTITLE13=Randy Scruggs - It's Only Love
TTITLE14=Shania Twain - That Don't Impress Me Much
TTITLE15=Terri Clark - Everytime I Try
TTITLE16=Tracey Lawrence - I'll Never Pass This Way Again
TTITLE17=Wynonna - Freedom
TTITLE18=Conway Twitty - Next In Line
TTITLE19=Eddy Arnold - Wake The World Go Away
EXTD=
EXTT0=
EXTT1=
EXTT2=
EXTT3=
EXTT4=
EXTT5=
EXTT6=
EXTT7=
EXTT8=
EXTT9=
EXTT10=
EXTT11=
EXTT12=
EXTT13=
EXTT14=
EXTT15=
EXTT16=
EXTT17=
EXTT18=
EXTT19=
PLAYORDER=
